Patient4_TMGait_0pt5_02_right_23_GRF.mot
version=1
nRows=32
nColumns=19
inDegrees=no
endheader
time	F1x	F1y	F1z	M1x	M1y	M1z	F2x	F2y	F2z	M2x	M2y	M2z	EC1x	EC1y	EC1z	EC2x	EC2y	EC2z
29.93	27.1051	765.3749	54.1946	-284.1611	-28.5569	542.0556	-0.47749	1.0071	-1.9203	2.7659	-1.4466	1.6977	-0.0592	0.0182	-0.0073	-0.0462	0.0165	0.9585
29.9431	22.7576	760.6932	54.5153	-281.9703	-29.6859	531.5772	-0.46135	1.5074	-1.5642	2.2279	-0.68145	1.9788	-0.0592	0.0182	-0.0073	-0.0462	0.0165	0.9585
29.9563	19.711	755.1463	54.6512	-279.4964	-30.2181	520.831	-0.43616	1.9178	-1.1767	1.7461	-0.10464	2.19	-0.0592	0.0182	-0.0073	-0.0462	0.0165	0.9585
29.9694	18.1187	749.3396	54.5894	-276.9712	-30.1199	510.5821	-0.41134	2.2264	-0.83235	1.3664	0.29123	2.329	-0.0592	0.0182	-0.0073	-0.0462	0.0165	0.9585
29.9826	17.8142	743.9512	54.3387	-274.6398	-29.4687	501.3903	-0.39887	2.4457	-0.55413	1.0983	0.53026	2.4182	-0.0592	0.0182	-0.0073	-0.0462	0.0165	0.9585
29.9957	18.4791	739.5308	53.9568	-272.6953	-28.4245	493.5842	-0.39529	2.5805	-0.35733	0.92661	0.65793	2.4556	-0.0592	0.0182	-0.0073	-0.0462	0.0165	0.9585
30.0089	19.8053	736.4181	53.502	-271.2538	-27.1353	487.2462	-0.40849	2.6359	-0.23407	0.82524	0.71137	2.4382	-0.0592	0.0182	-0.0073	-0.0462	0.0165	0.9585
30.022	21.5208	734.7406	53.0511	-270.3513	-25.7473	482.2937	-0.43307	2.5996	-0.18452	0.75965	0.73412	2.3477	-0.0592	0.0182	-0.0073	-0.0462	0.0165	0.9585
30.0351	23.4527	734.4329	52.6478	-269.9571	-24.3431	478.5017	-0.46097	2.4384	-0.19404	0.69135	0.74998	2.1568	-0.0592	0.0182	-0.0073	-0.0462	0.0165	0.9585
30.0483	25.5254	735.3275	52.338	-270.0037	-22.9747	475.6159	-0.49116	2.1054	-0.25575	0.58133	0.78201	1.834	-0.0592	0.0182	-0.0073	-0.0462	0.0165	0.9585
30.0614	27.7306	737.2221	52.1309	-270.41	-21.6396	473.4136	-0.51045	1.5481	-0.34931	0.39335	0.82678	1.3332	-0.0592	0.0182	-0.0073	-0.0462	0.0165	0.9585
30.0746	30.0958	739.8802	52.0442	-271.078	-20.3313	471.6785	-0.52085	0.70662	-0.45832	0.092244	0.88248	0.60449	-0.0592	0.0182	-0.0073	-0.0462	0.0165	0.9585
30.0877	32.6253	743.0623	52.0735	-271.9015	-19.0325	470.2525	-0.5098	-0.47284	-0.55713	-0.3491	0.93014	-0.40567	-0.0592	0.0182	-0.0073	-0.0462	0.0165	0.9585
30.1009	35.3259	746.5333	52.2284	-272.7667	-17.743	469.0221	-0.46464	-1.9866	-0.61684	-0.93183	0.94199	-1.6984	-0.0592	0.0182	-0.0073	-0.0462	0.0165	0.9585
30.114	38.1711	750.0803	52.5196	-273.5609	-16.4774	467.9376	-0.37128	-3.7445	-0.60173	-1.6181	0.87713	-3.2005	-0.0592	0.0182	-0.0073	-0.0462	0.0165	0.9585
30.1271	41.0827	753.4796	52.9931	-274.162	-15.3018	466.9621	-0.20309	-5.5111	-0.46545	-2.3101	0.68214	-4.7148	-0.0592	0.0182	-0.0073	-0.0462	0.0165	0.9585
30.1403	43.9336	756.4357	53.7049	-274.4246	-14.3093	466.0268	0.058351	-6.8424	-0.14791	-2.8256	0.29426	-5.8677	-0.0592	0.0182	-0.0073	-0.0462	0.0165	0.9585
30.1534	46.5652	758.5712	54.709	-274.1862	-13.6044	465.0088	0.43394	-7.032	0.42088	-2.8739	-0.35395	-6.0651	-0.0592	0.0182	-0.0073	-0.0462	0.0165	0.9585
30.1666	48.8389	759.488	56.0274	-273.2994	-13.2593	463.7268	0.92714	-5.0499	1.3071	-2.037	-1.3146	-4.4223	-0.0592	0.0182	-0.0073	-0.0462	0.0165	0.9585
30.1797	50.671	758.8713	57.6215	-271.6731	-13.2882	461.9971	1.5182	0.43835	2.5486	0.2283	-2.6073	0.20836	-0.0592	0.0182	-0.0073	-0.0462	0.0165	0.9585
30.1929	52.0466	756.5141	59.382	-269.283	-13.637	459.6375	2.1305	11.0093	4.1188	4.5588	-4.1756	9.2018	-0.0592	0.0182	-0.0073	-0.0462	0.0165	0.9585
30.206	52.9823	752.2484	61.1491	-266.1374	-14.2082	456.4588	2.6001	28.3003	5.8894	11.6078	-5.8356	23.9909	-0.0592	0.0182	-0.0073	-0.0462	0.0165	0.9585
30.2191	53.5129	745.7972	62.7192	-262.2158	-14.8651	452.1774	2.5346	53.7017	7.5878	21.9197	-7.1878	45.8107	-0.0592	0.0182	-0.0073	-0.0462	0.0165	0.9585
30.2323	53.6718	736.6613	63.8606	-257.4228	-15.4508	446.3725	1.2135	87.7981	8.7768	35.7003	-7.5618	75.2146	-0.0592	0.0182	-0.0073	-0.0462	0.0165	0.9585
30.2454	53.495	724.0506	64.3406	-251.5599	-15.8062	438.4706	-2.331	129.581	8.8604	52.5031	-6.0532	111.4076	-0.0592	0.0182	-0.0073	-0.0462	0.0165	0.9585
30.2586	53.0323	706.9436	63.9601	-244.34	-15.7901	427.775	-8.5264	175.8993	7.2369	71.0179	-1.9805	151.7402	-0.0592	0.0182	-0.0073	-0.0462	0.0165	0.9585
30.2717	52.3114	684.3172	62.5931	-235.4578	-15.3124	413.6242	-16.3806	221.7329	3.6614	89.2123	4.4582	191.8243	-0.0592	0.0182	-0.0073	-0.0462	0.0165	0.9585
30.2849	51.3528	655.4248	60.2387	-224.6817	-14.3676	395.5579	-24.2246	262.1074	-1.4102	105.1039	12.1622	227.2114	-0.0592	0.0182	-0.0073	-0.0462	0.0165	0.9585
30.298	50.1184	620.0374	57.0099	-211.9277	-13.0416	373.4894	-31.0025	294.6488	-7.2591	117.7709	20.0557	255.6824	-0.0592	0.0182	-0.0073	-0.0462	0.0165	0.9585
30.3111	48.578	578.5696	53.0869	-197.3115	-11.4554	347.7438	-36.4641	320.6826	-13.1461	127.7632	27.3898	278.3414	-0.0592	0.0182	-0.0073	-0.0462	0.0165	0.9585
30.3243	46.7275	532.0137	48.6342	-181.1385	-9.7088	318.988	-40.793	343.5416	-18.3908	136.4481	33.6541	298.0846	-0.0592	0.0182	-0.0073	-0.0462	0.0165	0.9585
30.3374	44.5237	481.7035	43.7264	-163.8287	-7.8534	288.1015	-44.3075	366.7121	-22.5664	145.2462	38.6234	317.9505	-0.0592	0.0182	-0.0073	-0.0462	0.0165	0.9585
